HIERARCHY
ROOT root
{
	OFFSET	0	13.1	24.9
	CHANNELS 6  Xposition Yposition Zposition Xrotation Yrotation Zrotation
	JOINT spine_1
	{
		OFFSET	0	9.99999	0
		CHANNELS 3  Xrotation Yrotation Zrotation
		JOINT spine_2
		{
			OFFSET	0	112	-10
			CHANNELS 3  Xrotation Yrotation Zrotation
			JOINT spine_3
			{
				OFFSET	0	206.5	19.3
				CHANNELS 3  Xrotation Yrotation Zrotation
				JOINT spine_4
				{
					OFFSET	0	110.4	14.6
					CHANNELS 3  Xrotation Yrotation Zrotation
					JOINT neck_1
					{
						OFFSET	0	71.8	-50.3
						CHANNELS 3  Xrotation Yrotation Zrotation
						JOINT neck_2
						{
							OFFSET	0	86.2	-25.8
							CHANNELS 3  Xrotation Yrotation Zrotation
							JOINT head_ee
							{
								OFFSET	0	179.8	-8.7
								CHANNELS 3  Xrotation Yrotation Zrotation
								End Site
								{
									OFFSET	1	0	0
								}
							}
						}
					}
					JOINT left_clavicle
					{
						OFFSET	-43.2	22.4	-70.8
						CHANNELS 3  Xrotation Yrotation Zrotation
						JOINT left_shoulder
						{
							OFFSET	-93.9	-5.79999	48.7
							CHANNELS 3  Xrotation Yrotation Zrotation
							JOINT left_elbow
							{
								OFFSET	-291.4	-30.8	15.2
								CHANNELS 3  Xrotation Yrotation Zrotation
								JOINT left_lowarm_twist
								{
									OFFSET	-110.7	-3.89999	13.6
									CHANNELS 3  Xrotation Yrotation Zrotation
									JOINT left_hand
									{
										OFFSET	-110.7	-3.89999	13.6
										CHANNELS 3  Xrotation Yrotation Zrotation
										JOINT left_ee
										{
											OFFSET	-80.8	-5.10001	12.1
											CHANNELS 3  Xrotation Yrotation Zrotation
											End Site
											{
												OFFSET	1	0	0
											}
										}
									}
								}
							}
						}
					}
					JOINT right_clavicle
					{
						OFFSET	43.2	22.4	-70.8
						CHANNELS 3  Xrotation Yrotation Zrotation
						JOINT right_shoulder
						{
							OFFSET	93.9	-5.79999	48.7
							CHANNELS 3  Xrotation Yrotation Zrotation
							JOINT right_elbow
							{
								OFFSET	291.4	-30.8	15.2
								CHANNELS 3  Xrotation Yrotation Zrotation
								JOINT right_lowarm_twist
								{
									OFFSET	110.7	-3.89999	13.6
									CHANNELS 3  Xrotation Yrotation Zrotation
									JOINT right_hand
									{
										OFFSET	110.7	-3.89999	13.6
										CHANNELS 3  Xrotation Yrotation Zrotation
										JOINT right_ee
										{
											OFFSET	80.8	-5.10001	12.1
											CHANNELS 3  Xrotation Yrotation Zrotation
											End Site
											{
												OFFSET	1	0	0
											}
										}
									}
								}
							}
						}
					}
				}
			}
		}
	}
	JOINT left_hip
	{
		OFFSET	-82.8	-127.5	0.300001
		CHANNELS 3  Xrotation Yrotation Zrotation
		JOINT left_knee
		{
			OFFSET	-28.2	-396.7	2.2
			CHANNELS 3  Xrotation Yrotation Zrotation
			JOINT left_ankle
			{
				OFFSET	-11.7	-411.3	35.4
				CHANNELS 3  Xrotation Yrotation Zrotation
				JOINT left_toes
				{
					OFFSET	0	-60	-88.6
					CHANNELS 3  Xrotation Yrotation Zrotation
					JOINT left_foot_ee
					{
						OFFSET	-22.5	-16.5	-42.2
						CHANNELS 3  Xrotation Yrotation Zrotation
						End Site
						{
							OFFSET	1	0	0
						}
					}
				}
			}
		}
	}
	JOINT right_hip
	{
		OFFSET	82.8	-127.5	0.300001
		CHANNELS 3  Xrotation Yrotation Zrotation
		JOINT right_knee
		{
			OFFSET	28.2	-396.7	2.2
			CHANNELS 3  Xrotation Yrotation Zrotation
			JOINT right_ankle
			{
				OFFSET	11.7	-411.3	35.4
				CHANNELS 3  Xrotation Yrotation Zrotation
				JOINT right_toes
				{
					OFFSET	0	-60	-88.6
					CHANNELS 3  Xrotation Yrotation Zrotation
					JOINT right_foot_ee
					{
						OFFSET	22.5	-16.5	-42.2
						CHANNELS 3  Xrotation Yrotation Zrotation
						End Site
						{
							OFFSET	1	0	0
						}
					}
				}
			}
		}
	}
}
MOTION
Frames: 14
Frame Time: 0.02
391.555 721.904 -1204.45 -168.033828125 -47.4431795198 -167.339760497 2.4262 -0.304195 -1.6295 2.42765 -0.199903 -1.64555 2.43321 0.0801916 -1.65571 2.42943 -0.182266 -1.6476 -15.6101 4.9707 1.21051 -15.6778 8.81399 2.8424 -0.0 0.0 -0.0 4.99829 20.7987 9.69879 -4.06951 -24.7883 69.9382 1.46497 -35.9662 0.475542 85.4497 -4.48045 -8.88665 1.3754 -11.5636 4.36295 -0.0 0.0 -0.0 5.61366 18.1614 -9.91652 -8.70133 18.9548 -70.3013 0.209078 5.91325 -0.0107986 63.2832 2.07478 7.40232 4.44533 -31.142 -38.8098 0.0 0.0 0.0 14.853 28.2915 -1.69641 -8.63328 0.258025 1.29857 27.6819 -21.0289 -4.09216 23.3702 -0.0 -0.0 -0.0 0.0 -0.0 16.5599 -3.33651 3.20517 -19.6228 -0.299935 -2.98165 31.7461 -24.9452 4.30487 -1.65611 0.0 0.0 0.0 0.0 0.0 
405.990645322 712.713 -1178.14262641 -160.899703203 -50.7272973618 -158.544389114 4.28924 -0.49928 -2.21774 4.2919 -0.357184 -2.245 4.30413 -0.0481858 -2.27271 4.29716 -0.406423 -2.23661 -8.29826 -2.73364 3.55037 -8.26483 -7.60203 2.90579 -0.0 0.0 -0.0 5.11064 -0.445107 9.86232 2.76084 -21.7236 76.8581 1.32055 -33.1896 0.393558 85.4735 -4.48331 -8.88773 -8.36943 27.1265 -39.107 -0.0 0.0 -0.0 1.29462 -17.2427 -4.01872 -8.27161 17.1468 -71.0434 0.400885 11.2323 -0.0394212 50.018 0.970101 6.11524 0.270555 -28.0086 -12.5065 0.0 0.0 0.0 13.0937 -1.71814 -1.60601 3.45652 -0.157694 -0.506835 28.0698 -13.6013 -3.91153 8.82682 -0.0 -0.0 -0.0 0.0 -0.0 18.2229 -2.88682 -4.16913 -20.6969 -0.286702 -3.14593 36.7308 -28.7837 4.96954 -8.55695 0.0 0.0 0.0 0.0 0.0 
405.669555246 712.713 -1177.96896733 -161.173477897 -50.0681191006 -158.899709247 4.28924 -0.49928 -2.21774 4.2919 -0.357184 -2.245 4.30413 -0.0481858 -2.27271 4.29716 -0.406423 -2.23661 -8.29826 -2.73364 3.55037 -8.26483 -7.60203 2.90579 -0.0 0.0 -0.0 5.11064 -0.445107 9.86232 2.76084 -21.7236 76.8581 1.32055 -33.1896 0.393558 85.4735 -4.48331 -8.88773 -8.36943 27.1265 -39.107 -0.0 0.0 -0.0 1.29462 -17.2427 -4.01872 -8.27161 17.1468 -71.0434 0.400885 11.2323 -0.0394212 50.018 0.970101 6.11524 0.270555 -28.0086 -12.5065 0.0 0.0 0.0 13.0937 -1.71814 -1.60601 3.45652 -0.157694 -0.506835 28.0698 -13.6013 -3.91153 8.82682 -0.0 -0.0 -0.0 0.0 -0.0 18.2229 -2.88682 -4.16913 -20.6969 -0.286702 -3.14593 36.7308 -28.7837 4.96954 -8.55695 0.0 0.0 0.0 0.0 0.0 
404.940272149 712.713 -1177.59296646 -161.753097479 -48.5826756817 -159.663883056 4.28924 -0.49928 -2.21774 4.2919 -0.357184 -2.245 4.30413 -0.0481858 -2.27271 4.29716 -0.406423 -2.23661 -8.29826 -2.73364 3.55037 -8.26483 -7.60203 2.90579 -0.0 0.0 -0.0 5.11064 -0.445107 9.86232 2.76084 -21.7236 76.8581 1.32055 -33.1896 0.393558 85.4735 -4.48331 -8.88773 -8.36943 27.1265 -39.107 -0.0 0.0 -0.0 1.29462 -17.2427 -4.01872 -8.27161 17.1468 -71.0434 0.400885 11.2323 -0.0394212 50.018 0.970101 6.11524 0.270555 -28.0086 -12.5065 0.0 0.0 0.0 13.0937 -1.71814 -1.60601 3.45652 -0.157694 -0.506835 28.0698 -13.6013 -3.91153 8.82682 -0.0 -0.0 -0.0 0.0 -0.0 18.2229 -2.88682 -4.16913 -20.6969 -0.286702 -3.14593 36.7308 -28.7837 4.96954 -8.55695 0.0 0.0 0.0 0.0 0.0 
404.82544252 712.713 -1177.53604235 -161.839404201 -48.3502096197 -159.779178645 4.28924 -0.49928 -2.21774 4.2919 -0.357184 -2.245 4.30413 -0.0481858 -2.27271 4.29716 -0.406423 -2.23661 -8.29826 -2.73364 3.55037 -8.26483 -7.60203 2.90579 -0.0 0.0 -0.0 5.11064 -0.445107 9.86232 2.76084 -21.7236 76.8581 1.32055 -33.1896 0.393558 85.4735 -4.48331 -8.88773 -8.36943 27.1265 -39.107 -0.0 0.0 -0.0 1.29462 -17.2427 -4.01872 -8.27161 17.1468 -71.0434 0.400885 11.2323 -0.0394212 50.018 0.970101 6.11524 0.270555 -28.0086 -12.5065 0.0 0.0 0.0 13.0937 -1.71814 -1.60601 3.45652 -0.157694 -0.506835 28.0698 -13.6013 -3.91153 8.82682 -0.0 -0.0 -0.0 0.0 -0.0 18.2229 -2.88682 -4.16913 -20.6969 -0.286702 -3.14593 36.7308 -28.7837 4.96954 -8.55695 0.0 0.0 0.0 0.0 0.0 
405.440883218 712.713 -1177.84834576 -161.361306521 -49.600627717 -159.145497115 4.28924 -0.49928 -2.21774 4.2919 -0.357184 -2.245 4.30413 -0.0481858 -2.27271 4.29716 -0.406423 -2.23661 -8.29826 -2.73364 3.55037 -8.26483 -7.60203 2.90579 -0.0 0.0 -0.0 5.11064 -0.445107 9.86232 2.76084 -21.7236 76.8581 1.32055 -33.1896 0.393558 85.4735 -4.48331 -8.88773 -8.36943 27.1265 -39.107 -0.0 0.0 -0.0 1.29462 -17.2427 -4.01872 -8.27161 17.1468 -71.0434 0.400885 11.2323 -0.0394212 50.018 0.970101 6.11524 0.270555 -28.0086 -12.5065 0.0 0.0 0.0 13.0937 -1.71814 -1.60601 3.45652 -0.157694 -0.506835 28.0698 -13.6013 -3.91153 8.82682 -0.0 -0.0 -0.0 0.0 -0.0 18.2229 -2.88682 -4.16913 -20.6969 -0.286702 -3.14593 36.7308 -28.7837 4.96954 -8.55695 0.0 0.0 0.0 0.0 0.0 
405.842423207 712.713 -1178.06183411 -161.027578503 -50.4226018217 -158.709932283 4.28924 -0.49928 -2.21774 4.2919 -0.357184 -2.245 4.30413 -0.0481858 -2.27271 4.29716 -0.406423 -2.23661 -8.29826 -2.73364 3.55037 -8.26483 -7.60203 2.90579 -0.0 0.0 -0.0 5.11064 -0.445107 9.86232 2.76084 -21.7236 76.8581 1.32055 -33.1896 0.393558 85.4735 -4.48331 -8.88773 -8.36943 27.1265 -39.107 -0.0 0.0 -0.0 1.29462 -17.2427 -4.01872 -8.27161 17.1468 -71.0434 0.400885 11.2323 -0.0394212 50.018 0.970101 6.11524 0.270555 -28.0086 -12.5065 0.0 0.0 0.0 13.0937 -1.71814 -1.60601 3.45652 -0.157694 -0.506835 28.0698 -13.6013 -3.91153 8.82682 -0.0 -0.0 -0.0 0.0 -0.0 18.2229 -2.88682 -4.16913 -20.6969 -0.286702 -3.14593 36.7308 -28.7837 4.96954 -8.55695 0.0 0.0 0.0 0.0 0.0 
406.517590456 712.713 -1178.43872076 -160.42312413 -51.816302754 -157.933516159 4.28924 -0.49928 -2.21774 4.2919 -0.357184 -2.245 4.30413 -0.0481858 -2.27271 4.29716 -0.406423 -2.23661 -8.29826 -2.73364 3.55037 -8.26483 -7.60203 2.90579 -0.0 0.0 -0.0 5.11064 -0.445107 9.86232 2.76084 -21.7236 76.8581 1.32055 -33.1896 0.393558 85.4735 -4.48331 -8.88773 -8.36943 27.1265 -39.107 -0.0 0.0 -0.0 1.29462 -17.2427 -4.01872 -8.27161 17.1468 -71.0434 0.400885 11.2323 -0.0394212 50.018 0.970101 6.11524 0.270555 -28.0086 -12.5065 0.0 0.0 0.0 13.0937 -1.71814 -1.60601 3.45652 -0.157694 -0.506835 28.0698 -13.6013 -3.91153 8.82682 -0.0 -0.0 -0.0 0.0 -0.0 18.2229 -2.88682 -4.16913 -20.6969 -0.286702 -3.14593 36.7308 -28.7837 4.96954 -8.55695 0.0 0.0 0.0 0.0 0.0 
407.172841343 712.713 -1178.82679191 -159.778075451 -53.18361985 -157.120512605 4.28924 -0.49928 -2.21774 4.2919 -0.357184 -2.245 4.30413 -0.0481858 -2.27271 4.29716 -0.406423 -2.23661 -8.29826 -2.73364 3.55037 -8.26483 -7.60203 2.90579 -0.0 0.0 -0.0 5.11064 -0.445107 9.86232 2.76084 -21.7236 76.8581 1.32055 -33.1896 0.393558 85.4735 -4.48331 -8.88773 -8.36943 27.1265 -39.107 -0.0 0.0 -0.0 1.29462 -17.2427 -4.01872 -8.27161 17.1468 -71.0434 0.400885 11.2323 -0.0394212 50.018 0.970101 6.11524 0.270555 -28.0086 -12.5065 0.0 0.0 0.0 13.0937 -1.71814 -1.60601 3.45652 -0.157694 -0.506835 28.0698 -13.6013 -3.91153 8.82682 -0.0 -0.0 -0.0 0.0 -0.0 18.2229 -2.88682 -4.16913 -20.6969 -0.286702 -3.14593 36.7308 -28.7837 4.96954 -8.55695 0.0 0.0 0.0 0.0 0.0 
406.915659118 712.713 -1178.67179385 -160.038637071 -52.6451656203 -157.447135289 4.28924 -0.49928 -2.21774 4.2919 -0.357184 -2.245 4.30413 -0.0481858 -2.27271 4.29716 -0.406423 -2.23661 -8.29826 -2.73364 3.55037 -8.26483 -7.60203 2.90579 -0.0 0.0 -0.0 5.11064 -0.445107 9.86232 2.76084 -21.7236 76.8581 1.32055 -33.1896 0.393558 85.4735 -4.48331 -8.88773 -8.36943 27.1265 -39.107 -0.0 0.0 -0.0 1.29462 -17.2427 -4.01872 -8.27161 17.1468 -71.0434 0.400885 11.2323 -0.0394212 50.018 0.970101 6.11524 0.270555 -28.0086 -12.5065 0.0 0.0 0.0 13.0937 -1.71814 -1.60601 3.45652 -0.157694 -0.506835 28.0698 -13.6013 -3.91153 8.82682 -0.0 -0.0 -0.0 0.0 -0.0 18.2229 -2.88682 -4.16913 -20.6969 -0.286702 -3.14593 36.7308 -28.7837 4.96954 -8.55695 0.0 0.0 0.0 0.0 0.0 
407.546321598 712.713 -1179.05820222 -159.381399094 -53.9698165968 -156.627546872 4.28924 -0.49928 -2.21774 4.2919 -0.357184 -2.245 4.30413 -0.0481858 -2.27271 4.29716 -0.406423 -2.23661 -8.29826 -2.73364 3.55037 -8.26483 -7.60203 2.90579 -0.0 0.0 -0.0 5.11064 -0.445107 9.86232 2.76084 -21.7236 76.8581 1.32055 -33.1896 0.393558 85.4735 -4.48331 -8.88773 -8.36943 27.1265 -39.107 -0.0 0.0 -0.0 1.29462 -17.2427 -4.01872 -8.27161 17.1468 -71.0434 0.400885 11.2323 -0.0394212 50.018 0.970101 6.11524 0.270555 -28.0086 -12.5065 0.0 0.0 0.0 13.0937 -1.71814 -1.60601 3.45652 -0.157694 -0.506835 28.0698 -13.6013 -3.91153 8.82682 -0.0 -0.0 -0.0 0.0 -0.0 18.2229 -2.88682 -4.16913 -20.6969 -0.286702 -3.14593 36.7308 -28.7837 4.96954 -8.55695 0.0 0.0 0.0 0.0 0.0 
407.534604656 712.713 -1179.05082686 -159.394188033 -53.9450737851 -156.643363408 4.28924 -0.49928 -2.21774 4.2919 -0.357184 -2.245 4.30413 -0.0481858 -2.27271 4.29716 -0.406423 -2.23661 -8.29826 -2.73364 3.55037 -8.26483 -7.60203 2.90579 -0.0 0.0 -0.0 5.11064 -0.445107 9.86232 2.76084 -21.7236 76.8581 1.32055 -33.1896 0.393558 85.4735 -4.48331 -8.88773 -8.36943 27.1265 -39.107 -0.0 0.0 -0.0 1.29462 -17.2427 -4.01872 -8.27161 17.1468 -71.0434 0.400885 11.2323 -0.0394212 50.018 0.970101 6.11524 0.270555 -28.0086 -12.5065 0.0 0.0 0.0 13.0937 -1.71814 -1.60601 3.45652 -0.157694 -0.506835 28.0698 -13.6013 -3.91153 8.82682 -0.0 -0.0 -0.0 0.0 -0.0 18.2229 -2.88682 -4.16913 -20.6969 -0.286702 -3.14593 36.7308 -28.7837 4.96954 -8.55695 0.0 0.0 0.0 0.0 0.0 
407.898943565 712.713 -1179.28372754 -158.98550021 -54.7168687126 -156.140312887 4.28924 -0.49928 -2.21774 4.2919 -0.357184 -2.245 4.30413 -0.0481858 -2.27271 4.29716 -0.406423 -2.23661 -8.29826 -2.73364 3.55037 -8.26483 -7.60203 2.90579 -0.0 0.0 -0.0 5.11064 -0.445107 9.86232 2.76084 -21.7236 76.8581 1.32055 -33.1896 0.393558 85.4735 -4.48331 -8.88773 -8.36943 27.1265 -39.107 -0.0 0.0 -0.0 1.29462 -17.2427 -4.01872 -8.27161 17.1468 -71.0434 0.400885 11.2323 -0.0394212 50.018 0.970101 6.11524 0.270555 -28.0086 -12.5065 0.0 0.0 0.0 13.0937 -1.71814 -1.60601 3.45652 -0.157694 -0.506835 28.0698 -13.6013 -3.91153 8.82682 -0.0 -0.0 -0.0 0.0 -0.0 18.2229 -2.88682 -4.16913 -20.6969 -0.286702 -3.14593 36.7308 -28.7837 4.96954 -8.55695 0.0 0.0 0.0 0.0 0.0 
408.079116987 712.713 -1179.40166036 -158.774635613 -55.1004116974 -155.882608276 4.28924 -0.49928 -2.21774 4.2919 -0.357184 -2.245 4.30413 -0.0481858 -2.27271 4.29716 -0.406423 -2.23661 -8.29826 -2.73364 3.55037 -8.26483 -7.60203 2.90579 -0.0 0.0 -0.0 5.11064 -0.445107 9.86232 2.76084 -21.7236 76.8581 1.32055 -33.1896 0.393558 85.4735 -4.48331 -8.88773 -8.36943 27.1265 -39.107 -0.0 0.0 -0.0 1.29462 -17.2427 -4.01872 -8.27161 17.1468 -71.0434 0.400885 11.2323 -0.0394212 50.018 0.970101 6.11524 0.270555 -28.0086 -12.5065 0.0 0.0 0.0 13.0937 -1.71814 -1.60601 3.45652 -0.157694 -0.506835 28.0698 -13.6013 -3.91153 8.82682 -0.0 -0.0 -0.0 0.0 -0.0 18.2229 -2.88682 -4.16913 -20.6969 -0.286702 -3.14593 36.7308 -28.7837 4.96954 -8.55695 0.0 0.0 0.0 0.0 0.0 
